<svg width="30" height="31" viewBox="0 0 30 31" fill="none" xmlns="http://www.w3.org/2000/svg">
<mask id="mask0_504_31" style="mask-type:alpha" maskUnits="userSpaceOnUse" x="0" y="0" width="30" height="31">
<rect width="30" height="31" fill="#D9D9D9"/>
</mask>
<g mask="url(#mask0_504_31)">
<path d="M6.25 27.1248C5.5625 27.1248 4.97396 26.8719 4.48438 26.366C3.99479 25.8601 3.75 25.2519 3.75 24.5415V6.45817C3.75 5.74775 3.99479 5.13959 4.48438 4.63369C4.97396 4.12779 5.5625 3.87484 6.25 3.87484H11.5C11.7708 3.09984 12.224 2.47553 12.8594 2.00192C13.4948 1.52831 14.2083 1.2915 15 1.2915C15.7917 1.2915 16.5052 1.52831 17.1406 2.00192C17.776 2.47553 18.2292 3.09984 18.5 3.87484H23.75C24.4375 3.87484 25.026 4.12779 25.5156 4.63369C26.0052 5.13959 26.25 5.74775 26.25 6.45817V24.5415C26.25 25.2519 26.0052 25.8601 25.5156 26.366C25.026 26.8719 24.4375 27.1248 23.75 27.1248H6.25ZM6.25 24.5415H23.75V6.45817H6.25V24.5415ZM8.75 21.9582H17.5V19.3748H8.75V21.9582ZM8.75 16.7915H21.25V14.2082H8.75V16.7915ZM8.75 11.6248H21.25V9.0415H8.75V11.6248ZM15 5.48942C15.2708 5.48942 15.4948 5.39793 15.6719 5.21494C15.849 5.03196 15.9375 4.80053 15.9375 4.52067C15.9375 4.24081 15.849 4.00939 15.6719 3.8264C15.4948 3.64341 15.2708 3.55192 15 3.55192C14.7292 3.55192 14.5052 3.64341 14.3281 3.8264C14.151 4.00939 14.0625 4.24081 14.0625 4.52067C14.0625 4.80053 14.151 5.03196 14.3281 5.21494C14.5052 5.39793 14.7292 5.48942 15 5.48942Z" fill="#1C1B1F"/>
</g>
</svg>
